<svg xmlns="http://www.w3.org/2000/svg" width="163" height="23" viewBox="0 0 163 23">
  <path fill="#E1C99E" fill-rule="evenodd" d="M66.5830078,59.7714844 L66.5830078,59.8144531 C70.6972656,60.1259766 72.1152344,61.9521484 72.1152344,63.7353516 C72.1152344,66.5068359 69.8164062,68 66.0458984,68 C65.3583984,68 63.9941406,67.9355469 62.125,67.9355469 C60.8251953,67.9355469 59.4824219,67.9570312 58.7412109,68 L58.7412109,67.5595703 C60.1376953,67.4951172 60.3847656,67.2695312 60.3847656,65.6689453 L60.3847656,54.7548828 C60.3847656,53.1542969 60.1269531,52.9287109 58.7412109,52.8642578 L58.7412109,52.4238281 C59.4824219,52.4667969 60.8466797,52.4882812 62.0820312,52.4882812 C63.5214844,52.4882812 64.9824219,52.4453125 65.5410156,52.4453125 C69.171875,52.4453125 70.9765625,53.8740234 70.9765625,55.9042969 C70.9765625,57.4619141 69.6552734,59.2021484 66.5830078,59.7714844 Z M65.2509766,52.8642578 C64.1230469,52.8642578 63.8867188,53.2402344 63.8867188,54.7548828 L63.8867188,59.7285156 L64.8320312,59.7285156 C66.9052734,59.7285156 67.4101562,58.0527344 67.4101562,56.140625 C67.4101562,53.9814453 66.8085938,52.8642578 65.2509766,52.8642578 Z M65.4013672,67.4951172 C67.5498047,67.4951172 68.4628906,66.109375 68.4628906,63.6386719 C68.4628906,61.4042969 67.4208984,60.1044922 64.8105469,60.1044922 L63.8867188,60.1044922 L63.8867188,65.6689453 C63.8867188,67.2050781 64.1445312,67.4951172 65.4013672,67.4951172 Z M77.6044922,50.7802734 L77.6044922,65.9589844 C77.6044922,67.1835938 77.9912109,67.5380859 79.0117188,67.5380859 L79.0117188,68 C78.453125,67.9785156 77.2177734,67.9140625 76.0791016,67.9140625 C74.9296875,67.9140625 73.6191406,67.9785156 73.0283203,68 L73.0283203,67.5380859 C74.0595703,67.5380859 74.4355469,67.1835938 74.4355469,65.9589844 L74.4355469,53.4228516 C74.4355469,52.1015625 74.0917969,51.4785156 73.0283203,51.4785156 L73.0283203,51.0166016 C73.4902344,51.0595703 73.9521484,51.0810547 74.3925781,51.0810547 C75.6171875,51.0810547 76.6914062,50.9951172 77.6044922,50.7802734 Z M90.9248047,56.3769531 L90.9248047,65.6152344 C90.9248047,66.9257812 91.2685547,67.5488281 92.3320312,67.5488281 L92.3320312,68.0107422 C91.8701172,67.9677734 91.4082031,67.9462891 90.9677734,67.9462891 C89.7431641,67.9462891 88.6689453,68.0322266 87.7558594,68.2470703 L87.7558594,66.2597656 C87.0361328,67.7314453 85.7255859,68.3115234 84.2109375,68.3115234 C82.9970703,68.3115234 82.2666016,67.9570312 81.8046875,67.4414062 C81.3212891,66.8935547 81.1386719,66.0449219 81.1386719,64.5947266 L81.1386719,59.0195312 C81.1386719,57.6982422 80.7949219,57.0751953 79.7314453,57.0751953 L79.7314453,56.6132812 C80.1933594,56.65625 80.6552734,56.6884766 81.0957031,56.6884766 C82.3203125,56.6884766 83.3837891,56.5917969 84.3076172,56.3769531 L84.3076172,65.4970703 C84.3076172,66.5927734 84.5224609,67.3447266 85.6181641,67.3447266 C86.7890625,67.3447266 87.7558594,66.2490234 87.7558594,64.7988281 L87.7558594,59.0195312 C87.7558594,57.6982422 87.4121094,57.0751953 86.3486328,57.0751953 L86.3486328,56.6132812 C86.8105469,56.65625 87.2724609,56.6884766 87.7128906,56.6884766 C88.9375,56.6884766 90.0117188,56.5917969 90.9248047,56.3769531 Z M100.850586,56.3125 C102.279297,56.3125 102.859375,57.3544922 102.859375,58.3427734 C102.859375,59.4277344 102.182617,60.1904297 101.151367,60.1904297 C100.120117,60.1904297 99.5078125,59.6318359 99.5078125,58.7724609 C99.5078125,57.9667969 99.9267578,57.4404297 100.474609,57.0751953 C100.388672,57.0429688 100.291992,57.0214844 100.18457,57.0214844 C100.087891,57.0214844 99.9804688,57.0429688 99.8730469,57.0751953 C98.7021484,57.2685547 97.875,58.7294922 97.875,59.9111328 L97.875,65.7333984 C97.875,67.1513672 98.5517578,67.5380859 99.9375,67.5380859 L99.9375,68 C99.2607422,67.9785156 97.8320312,67.9140625 96.4462891,67.9140625 C95.2431641,67.9140625 93.9003906,67.9785156 93.2988281,68 L93.2988281,67.5380859 C94.3193359,67.5380859 94.7060547,67.1835938 94.7060547,65.9589844 L94.7060547,59.0195312 C94.7060547,57.6982422 94.3623047,57.0751953 93.2988281,57.0751953 L93.2988281,56.6132812 C93.7607422,56.65625 94.2226562,56.6884766 94.6630859,56.6884766 C95.8876953,56.6884766 96.9511719,56.5917969 97.875,56.3769531 L97.875,58.4287109 C98.4013672,57.2470703 99.4648438,56.3125 100.850586,56.3125 Z M111.120117,56.3125 C112.548828,56.3125 113.128906,57.3544922 113.128906,58.3427734 C113.128906,59.4277344 112.452148,60.1904297 111.420898,60.1904297 C110.389648,60.1904297 109.777344,59.6318359 109.777344,58.7724609 C109.777344,57.9667969 110.196289,57.4404297 110.744141,57.0751953 C110.658203,57.0429688 110.561523,57.0214844 110.454102,57.0214844 C110.357422,57.0214844 110.25,57.0429688 110.142578,57.0751953 C108.97168,57.2685547 108.144531,58.7294922 108.144531,59.9111328 L108.144531,65.7333984 C108.144531,67.1513672 108.821289,67.5380859 110.207031,67.5380859 L110.207031,68 C109.530273,67.9785156 108.101562,67.9140625 106.71582,67.9140625 C105.512695,67.9140625 104.169922,67.9785156 103.568359,68 L103.568359,67.5380859 C104.588867,67.5380859 104.975586,67.1835938 104.975586,65.9589844 L104.975586,59.0195312 C104.975586,57.6982422 104.631836,57.0751953 103.568359,57.0751953 L103.568359,56.6132812 C104.030273,56.65625 104.492188,56.6884766 104.932617,56.6884766 C106.157227,56.6884766 107.220703,56.5917969 108.144531,56.3769531 L108.144531,58.4287109 C108.670898,57.2470703 109.734375,56.3125 111.120117,56.3125 Z M119.993164,66.4960938 C120.874023,66.4960938 121.991211,66.1953125 122.882812,64.734375 L123.280273,64.8847656 C122.753906,66.5390625 121.314453,68.3115234 118.875977,68.3115234 C115.911133,68.3115234 113.805664,66.4423828 113.805664,62.4248047 C113.805664,58.3427734 116.061523,56.3125 119.1875,56.3125 C121.754883,56.3125 123.323242,57.7519531 123.323242,61.2001953 L117.167969,61.2001953 C117.135742,61.5224609 117.125,61.8876953 117.125,62.2421875 C117.125,65.3037109 118.59668,66.4960938 119.993164,66.4960938 Z M119.058594,56.7851562 C118.070312,56.7851562 117.286133,57.9345703 117.103516,60.78125 L120.551758,60.78125 C120.594727,58.6328125 120.132812,56.7851562 119.058594,56.7851562 Z M135.429688,50.7802734 L135.429688,65.59375 C135.429688,66.9042969 135.773438,67.5273438 136.836914,67.5273438 L136.836914,67.9892578 C136.375,67.9462891 135.913086,67.9248047 135.472656,67.9248047 C134.248047,67.9248047 133.18457,68.0107422 132.260742,68.2255859 L132.260742,66.3671875 C131.755859,67.6347656 130.832031,68.3115234 129.40332,68.3115234 C126.782227,68.3115234 124.913086,66.453125 124.913086,62.2636719 C124.913086,58.2783203 127.007812,56.3125 129.833008,56.3125 C130.832031,56.3125 131.669922,56.5488281 132.260742,57.1396484 L132.260742,53.4228516 C132.260742,52.1015625 131.916992,51.4785156 130.853516,51.4785156 L130.853516,51.0166016 C131.31543,51.0595703 131.777344,51.0810547 132.217773,51.0810547 C133.453125,51.0810547 134.516602,50.9951172 135.429688,50.7802734 Z M130.316406,67.3554688 C131.21875,67.3554688 132.056641,66.6679688 132.260742,65.5078125 L132.260742,57.6875 C131.863281,57.171875 131.283203,56.9462891 130.660156,56.9462891 C129.145508,56.9462891 128.232422,58.6757812 128.243164,62.3066406 C128.232422,66.0664062 129.048828,67.3554688 130.316406,67.3554688 Z M148.707031,50.7910156 C149.727539,50.7910156 150.46875,51.0810547 151.05957,51.5214844 C151.478516,51.8652344 151.811523,52.4345703 151.811523,53.1650391 C151.811523,53.9814453 151.177734,54.7011719 150.253906,54.7011719 C149.265625,54.7011719 148.578125,54.1103516 148.578125,53.1328125 C148.578125,52.3808594 149.018555,51.7470703 149.867188,51.5 C149.770508,51.328125 149.501953,51.1884766 149.072266,51.1884766 C148.50293,51.1884766 148.116211,51.4140625 147.879883,51.7685547 C147.579102,52.2089844 147.47168,52.9394531 147.47168,54.6367188 L147.47168,56.6347656 L149.824219,56.6347656 L149.824219,57.0751953 L147.47168,57.0751953 L147.47168,65.7333984 C147.47168,67.1621094 148.245117,67.5380859 149.544922,67.5380859 L149.544922,68 C148.782227,67.9785156 147.27832,67.9140625 145.75293,67.9140625 C144.635742,67.9140625 143.454102,67.9785156 142.895508,68 L142.895508,67.5380859 C143.926758,67.5380859 144.302734,67.1835938 144.302734,65.9589844 L144.302734,57.0751953 L142.80957,57.0751953 L142.80957,56.6347656 L144.302734,56.6347656 C144.302734,54.0458984 144.667969,52.8857422 145.688477,51.8974609 C146.333008,51.2636719 147.47168,50.7910156 148.707031,50.7910156 Z M156.709961,66.4960938 C157.59082,66.4960938 158.708008,66.1953125 159.599609,64.734375 L159.99707,64.8847656 C159.470703,66.5390625 158.03125,68.3115234 155.592773,68.3115234 C152.62793,68.3115234 150.522461,66.4423828 150.522461,62.4248047 C150.522461,58.3427734 152.77832,56.3125 155.904297,56.3125 C158.47168,56.3125 160.040039,57.7519531 160.040039,61.2001953 L153.884766,61.2001953 C153.852539,61.5224609 153.841797,61.8876953 153.841797,62.2421875 C153.841797,65.3037109 155.313477,66.4960938 156.709961,66.4960938 Z M155.775391,56.7851562 C154.787109,56.7851562 154.00293,57.9345703 153.820312,60.78125 L157.268555,60.78125 C157.311523,58.6328125 156.849609,56.7851562 155.775391,56.7851562 Z M167.806641,66.4960938 C168.6875,66.4960938 169.804688,66.1953125 170.696289,64.734375 L171.09375,64.8847656 C170.567383,66.5390625 169.12793,68.3115234 166.689453,68.3115234 C163.724609,68.3115234 161.619141,66.4423828 161.619141,62.4248047 C161.619141,58.3427734 163.875,56.3125 167.000977,56.3125 C169.568359,56.3125 171.136719,57.7519531 171.136719,61.2001953 L164.981445,61.2001953 C164.949219,61.5224609 164.938477,61.8876953 164.938477,62.2421875 C164.938477,65.3037109 166.410156,66.4960938 167.806641,66.4960938 Z M166.87207,56.7851562 C165.883789,56.7851562 165.099609,57.9345703 164.916992,60.78125 L168.365234,60.78125 C168.408203,58.6328125 167.946289,56.7851562 166.87207,56.7851562 Z M176.905273,50.7802734 L176.905273,65.9589844 C176.905273,67.1835938 177.291992,67.5380859 178.3125,67.5380859 L178.3125,68 C177.753906,67.9785156 176.518555,67.9140625 175.379883,67.9140625 C174.230469,67.9140625 172.919922,67.9785156 172.329102,68 L172.329102,67.5380859 C173.360352,67.5380859 173.736328,67.1835938 173.736328,65.9589844 L173.736328,53.4228516 C173.736328,52.1015625 173.392578,51.4785156 172.329102,51.4785156 L172.329102,51.0166016 C172.791016,51.0595703 173.25293,51.0810547 173.693359,51.0810547 C174.917969,51.0810547 175.992188,50.9951172 176.905273,50.7802734 Z M182.125977,50.9414062 C183.339844,50.9414062 184.124023,51.5859375 184.124023,52.6386719 C184.124023,53.7021484 183.339844,54.3466797 182.125977,54.3466797 C180.890625,54.3466797 180.117188,53.7021484 180.117188,52.6386719 C180.117188,51.5859375 180.890625,50.9414062 182.125977,50.9414062 Z M183.855469,56.3769531 L183.855469,65.9589844 C183.855469,67.1835938 184.231445,67.5380859 185.262695,67.5380859 L185.262695,68 C184.704102,67.9785156 183.46875,67.9140625 182.319336,67.9140625 C181.180664,67.9140625 179.859375,67.9785156 179.279297,68 L179.279297,67.5380859 C180.299805,67.5380859 180.686523,67.1835938 180.686523,65.9589844 L180.686523,59.0195312 C180.686523,57.6982422 180.342773,57.0751953 179.279297,57.0751953 L179.279297,56.6132812 C179.741211,56.65625 180.203125,56.6884766 180.643555,56.6884766 C181.868164,56.6884766 182.931641,56.5917969 183.855469,56.3769531 Z M194.382812,56.3125 C195.639648,56.3125 196.359375,56.65625 196.810547,57.171875 C197.293945,57.7304688 197.498047,58.5361328 197.498047,60.0292969 L197.498047,65.9589844 C197.498047,67.1835938 197.884766,67.5380859 198.905273,67.5380859 L198.905273,68 C198.34668,67.9785156 197.079102,67.9140625 196.004883,67.9140625 C194.876953,67.9140625 193.68457,67.9785156 193.147461,68 L193.147461,67.5380859 C194.017578,67.5380859 194.329102,67.1835938 194.329102,65.9589844 L194.329102,59.1162109 C194.329102,58.0205078 194.071289,57.2792969 192.975586,57.2792969 C191.740234,57.2792969 190.794922,58.375 190.794922,59.8251953 L190.794922,65.9589844 C190.794922,67.1835938 191.106445,67.5380859 191.976562,67.5380859 L191.976562,68 C191.460938,67.9785156 190.322266,67.9140625 189.248047,67.9140625 C188.120117,67.9140625 186.798828,67.9785156 186.21875,68 L186.21875,67.5380859 C187.239258,67.5380859 187.625977,67.1835938 187.625977,65.9589844 L187.625977,59.0195312 C187.625977,57.6982422 187.282227,57.0751953 186.21875,57.0751953 L186.21875,56.6132812 C186.680664,56.65625 187.142578,56.6884766 187.583008,56.6884766 C188.807617,56.6884766 189.871094,56.5917969 190.794922,56.3769531 L190.794922,58.3642578 C191.525391,56.8710938 192.835938,56.3125 194.382812,56.3125 Z M202.826172,65.1855469 L207.885742,65.1855469 C209.486328,65.1855469 210.861328,65.7548828 210.861328,67.5488281 C210.861328,69.6650391 208.863281,72.1357422 204.491211,72.1357422 C201.171875,72.1357422 199.614258,71.2871094 199.614258,70.234375 C199.614258,68.8378906 201.773438,68.9238281 202.944336,68.1181641 L202.428711,68.1181641 C201.59082,68.1181641 199.96875,67.828125 199.96875,66.0771484 C199.96875,64.8310547 200.677734,63.9716797 202.772461,62.9833984 C201.300781,62.5 200.355469,61.46875 200.355469,59.8144531 C200.355469,57.3867188 202.375,56.3125 205.082031,56.3125 C205.662109,56.3125 206.220703,56.3662109 206.725586,56.4628906 C206.704102,56.0976562 206.725586,55.7324219 206.800781,55.3779297 C206.94043,54.2285156 207.574219,53.3476562 208.884766,53.3476562 C209.819336,53.3476562 210.485352,53.8632812 210.485352,54.6904297 C210.485352,55.4316406 209.84082,55.96875 208.981445,55.96875 C208.046875,55.96875 207.617188,55.5068359 207.337891,54.7333984 C207.1875,54.9912109 207.080078,55.3671875 207.015625,55.8505859 C207.004883,55.9580078 207.004883,56.0654297 207.004883,56.1728516 C207.004883,56.2910156 207.004883,56.4091797 207.015625,56.5273438 C208.702148,56.9570312 209.819336,58.0097656 209.819336,59.8144531 C209.819336,62.2314453 207.789062,63.3164062 205.082031,63.3164062 C204.394531,63.3164062 203.75,63.2519531 203.180664,63.1015625 C202.439453,63.5419922 201.923828,63.8964844 201.923828,64.4550781 C201.923828,64.9599609 202.235352,65.1855469 202.826172,65.1855469 Z M205.082031,56.7099609 C204.168945,56.7099609 203.610352,57.4619141 203.610352,59.8144531 C203.610352,62.1669922 204.168945,62.9189453 205.082031,62.9189453 C205.995117,62.9189453 206.553711,62.1669922 206.553711,59.8144531 C206.553711,57.4619141 205.995117,56.7099609 205.082031,56.7099609 Z M205.082031,71.7597656 C206.854492,71.7597656 208.412109,70.7607422 208.412109,69.03125 C208.412109,68.4404297 208.143555,68.1181641 207.144531,68.1181641 L203.363281,68.1181641 C202.847656,68.6123047 202.611328,69.3857422 202.611328,69.8583984 C202.611328,71.1152344 203.696289,71.7597656 205.082031,71.7597656 Z M215.996094,56.3125 C217.231445,56.3125 218.198242,56.7099609 218.62793,56.9892578 C218.77832,57.0859375 218.907227,57.1396484 219.025391,57.1396484 C219.283203,57.1396484 219.46582,56.8818359 219.541016,56.3339844 L220.013672,56.3339844 C219.938477,57.171875 219.916992,58.2460938 219.916992,60.2011719 L219.455078,60.2011719 C219.229492,58.5791016 218.509766,56.7958984 216.629883,56.7958984 C215.78125,56.7958984 215.136719,57.3115234 215.136719,58.2138672 C215.136719,59.5351562 216.490234,60.265625 217.84375,61.2753906 C219.31543,62.3603516 220.475586,63.3056641 220.475586,65.0458984 C220.475586,67.0546875 218.574219,68.3115234 216.307617,68.3115234 C215.426758,68.3115234 214.739258,68.1181641 214.245117,67.8496094 C213.847656,67.6455078 213.536133,67.484375 213.224609,67.3876953 C213.192383,67.3769531 213.160156,67.3662109 213.12793,67.3662109 C212.880859,67.3662109 212.698242,67.6777344 212.59082,68.1503906 L212.128906,68.1503906 C212.193359,67.2050781 212.214844,65.9804688 212.214844,63.7568359 L212.6875,63.7568359 C212.956055,66.1416016 213.804688,67.8066406 215.652344,67.8066406 C216.415039,67.8066406 217.199219,67.3662109 217.199219,66.2382812 C217.199219,64.9492188 216.243164,64.2294922 214.975586,63.2412109 C213.536133,62.1132812 212.214844,61.1142578 212.214844,59.3417969 C212.214844,57.3867188 213.998047,56.3125 215.996094,56.3125 Z" transform="translate(-58 -50)"/>
</svg>
